<svg width="304" height="39" viewBox="0 0 304 39" fill="none" xmlns="http://www.w3.org/2000/svg">
<path d="M14.2966 35.48C11.7366 35.48 9.78462 34.76 8.44062 33.32C7.09662 31.848 6.42462 29.752 6.42462 27.032V9.368C6.42462 6.648 7.09662 4.568 8.44062 3.128C9.78462 1.656 11.7366 0.919998 14.2966 0.919998C16.8566 0.919998 18.8086 1.656 20.1526 3.128C21.4966 4.568 22.1686 6.648 22.1686 9.368V12.248H17.1766V9.032C17.1766 6.824 16.2646 5.72 14.4406 5.72C12.6166 5.72 11.7046 6.824 11.7046 9.032V27.416C11.7046 29.592 12.6166 30.68 14.4406 30.68C16.2646 30.68 17.1766 29.592 17.1766 27.416V20.84H14.5366V16.04H22.1686V27.032C22.1686 29.752 21.4966 31.848 20.1526 33.32C18.8086 34.76 16.8566 35.48 14.2966 35.48ZM42.8386 35.48C40.2786 35.48 38.3266 34.76 36.9826 33.32C35.6386 31.848 34.9666 29.752 34.9666 27.032V1.4H40.2466V27.416C40.2466 28.568 40.4706 29.4 40.9186 29.912C41.3986 30.424 42.0706 30.68 42.9346 30.68C43.7986 30.68 44.4546 30.424 44.9026 29.912C45.3826 29.4 45.6226 28.568 45.6226 27.416V1.4H50.7106V27.032C50.7106 29.752 50.0386 31.848 48.6946 33.32C47.3506 34.76 45.3986 35.48 42.8386 35.48ZM64.0711 1.4H69.3511V35H64.0711V1.4ZM87.0335 6.2H81.5135V1.4H97.8335V6.2H92.3135V35H87.0335V6.2ZM111.867 1.4H119.019L124.491 35H119.211L118.251 28.328V28.424H112.251L111.291 35H106.395L111.867 1.4ZM117.627 23.864L115.275 7.256H115.179L112.875 23.864H117.627ZM136.652 1.4H144.476C147.196 1.4 149.18 2.04 150.428 3.32C151.676 4.568 152.3 6.504 152.3 9.128V11.192C152.3 14.68 151.148 16.888 148.844 17.816V17.912C150.124 18.296 151.02 19.08 151.532 20.264C152.076 21.448 152.348 23.032 152.348 25.016V30.92C152.348 31.88 152.38 32.664 152.444 33.272C152.508 33.848 152.668 34.424 152.924 35H147.548C147.356 34.456 147.228 33.944 147.164 33.464C147.1 32.984 147.068 32.12 147.068 30.872V24.728C147.068 23.192 146.812 22.12 146.3 21.512C145.82 20.904 144.972 20.6 143.756 20.6H141.932V35H136.652V1.4ZM143.852 15.8C144.908 15.8 145.692 15.528 146.204 14.984C146.748 14.44 147.02 13.528 147.02 12.248V9.656C147.02 8.44 146.796 7.56 146.348 7.016C145.932 6.472 145.26 6.2 144.332 6.2H141.932V15.8H143.852ZM172.476 35.48C169.916 35.48 167.98 34.76 166.668 33.32C165.356 31.848 164.7 29.752 164.7 27.032V25.112H169.692V27.416C169.692 29.592 170.604 30.68 172.428 30.68C173.324 30.68 173.996 30.424 174.444 29.912C174.924 29.368 175.164 28.504 175.164 27.32C175.164 25.912 174.844 24.68 174.204 23.624C173.564 22.536 172.38 21.24 170.652 19.736C168.476 17.816 166.956 16.088 166.092 14.552C165.228 12.984 164.796 11.224 164.796 9.272C164.796 6.616 165.468 4.568 166.812 3.128C168.156 1.656 170.108 0.919998 172.668 0.919998C175.196 0.919998 177.1 1.656 178.38 3.128C179.692 4.568 180.348 6.648 180.348 9.368V10.76H175.356V9.032C175.356 7.88 175.132 7.048 174.684 6.536C174.236 5.992 173.58 5.72 172.716 5.72C170.956 5.72 170.076 6.792 170.076 8.936C170.076 10.152 170.396 11.288 171.036 12.344C171.708 13.4 172.908 14.68 174.636 16.184C176.844 18.104 178.364 19.848 179.196 21.416C180.028 22.984 180.444 24.824 180.444 26.936C180.444 29.688 179.756 31.8 178.38 33.272C177.036 34.744 175.068 35.48 172.476 35.48ZM197.199 6.2H191.679V1.4H207.999V6.2H202.479V35H197.199V6.2ZM254.73 1.4H262.554C265.274 1.4 267.258 2.04 268.506 3.32C269.754 4.568 270.378 6.504 270.378 9.128V11.192C270.378 14.68 269.226 16.888 266.922 17.816V17.912C268.202 18.296 269.098 19.08 269.61 20.264C270.154 21.448 270.426 23.032 270.426 25.016V30.92C270.426 31.88 270.458 32.664 270.522 33.272C270.586 33.848 270.746 34.424 271.002 35H265.626C265.434 34.456 265.306 33.944 265.242 33.464C265.178 32.984 265.146 32.12 265.146 30.872V24.728C265.146 23.192 264.89 22.12 264.378 21.512C263.898 20.904 263.05 20.6 261.834 20.6H260.01V35H254.73V1.4ZM261.93 15.8C262.986 15.8 263.77 15.528 264.282 14.984C264.826 14.44 265.098 13.528 265.098 12.248V9.656C265.098 8.44 264.874 7.56 264.426 7.016C264.01 6.472 263.338 6.2 262.41 6.2H260.01V15.8H261.93ZM283.69 1.4H298.09V6.2H288.97V15.08H296.218V19.88H288.97V30.2H298.09V35H283.69V1.4Z" fill="white"/>
<circle cx="231" cy="18" r="16" fill="white"/>
<path d="M241.667 15.4096V19.8286" stroke="black"/>
<line x1="239.712" y1="10.9905" x2="239.712" y2="24.2477" stroke="black"/>
<line x1="237.257" y1="6.57143" x2="237.257" y2="28.6667" stroke="black"/>
<line x1="234.802" y1="10.9905" x2="234.802" y2="24.2477" stroke="black"/>
<line x1="232.347" y1="13.1999" x2="232.347" y2="22.038" stroke="black"/>
<line x1="229.892" y1="10.9905" x2="229.892" y2="24.2477" stroke="black"/>
<line x1="227.437" y1="13.1999" x2="227.437" y2="22.038" stroke="black"/>
<line x1="224.981" y1="10.9905" x2="224.981" y2="24.2477" stroke="black"/>
<line x1="222.526" y1="13.1999" x2="222.526" y2="22.038" stroke="black"/>
<path d="M219.571 15.4096V19.8286" stroke="black"/>
</svg>
