<?xml version="1.0" standalone="no"?><svg xmlns="http://www.w3.org/2000/svg" viewBox="0 0 1440 320"><path fill="#fafad2" fill-opacity="1" d="M0,96L15,128C30,160,60,224,90,213.3C120,203,150,117,180,90.7C210,64,240,96,270,138.7C300,181,330,235,360,234.7C390,235,420,181,450,170.7C480,160,510,192,540,202.7C570,213,600,203,630,181.3C660,160,690,128,720,112C750,96,780,96,810,117.3C840,139,870,181,900,176C930,171,960,117,990,128C1020,139,1050,213,1080,213.3C1110,213,1140,139,1170,112C1200,85,1230,107,1260,128C1290,149,1320,171,1350,170.7C1380,171,1410,149,1425,138.7L1440,128L1440,320L1425,320C1410,320,1380,320,1350,320C1320,320,1290,320,1260,320C1230,320,1200,320,1170,320C1140,320,1110,320,1080,320C1050,320,1020,320,990,320C960,320,930,320,900,320C870,320,840,320,810,320C780,320,750,320,720,320C690,320,660,320,630,320C600,320,570,320,540,320C510,320,480,320,450,320C420,320,390,320,360,320C330,320,300,320,270,320C240,320,210,320,180,320C150,320,120,320,90,320C60,320,30,320,15,320L0,320Z"></path></svg>