<?xml version="1.0" standalone="no"?><svg xmlns="http://www.w3.org/2000/svg" viewBox="0 0 1440 320"><path fill="#fafad2" fill-opacity="1" d="M0,256L15,218.7C30,181,60,107,90,85.3C120,64,150,96,180,112C210,128,240,128,270,154.7C300,181,330,235,360,234.7C390,235,420,181,450,160C480,139,510,149,540,165.3C570,181,600,203,630,224C660,245,690,267,720,250.7C750,235,780,181,810,160C840,139,870,149,900,154.7C930,160,960,160,990,138.7C1020,117,1050,75,1080,96C1110,117,1140,203,1170,229.3C1200,256,1230,224,1260,192C1290,160,1320,128,1350,122.7C1380,117,1410,139,1425,149.3L1440,160L1440,0L1425,0C1410,0,1380,0,1350,0C1320,0,1290,0,1260,0C1230,0,1200,0,1170,0C1140,0,1110,0,1080,0C1050,0,1020,0,990,0C960,0,930,0,900,0C870,0,840,0,810,0C780,0,750,0,720,0C690,0,660,0,630,0C600,0,570,0,540,0C510,0,480,0,450,0C420,0,390,0,360,0C330,0,300,0,270,0C240,0,210,0,180,0C150,0,120,0,90,0C60,0,30,0,15,0L0,0Z"></path></svg>